<svg id="Layer_1" data-name="Layer 1" xmlns="http://www.w3.org/2000/svg" viewBox="0 0 118.12 163.66"><defs></defs><path class="cls-1" fill="#54585A" d="M21.65,135.5h5.2v2.22H19.08V122.41h2.57Z"></path><path class="cls-1" fill="#54585A" d="M40.57,122.41v2.24h-5.2v4H40v2.22H35.37v4.59h5.2v2.22H32.8V122.41Z"></path><path class="cls-1" fill="#54585A" d="M49.62,128.69h4.23v-6.28h2.57v15.31H53.85v-6.81H49.62v6.81H47.06V122.41h2.56Z"></path><path class="cls-1" fill="#54585A" d="M66.44,137.72H63.88V122.41h2.56Z"></path><path class="cls-1" fill="#54585A" d="M82.75,129.87V131c0,5-1.77,6.88-4.58,6.88s-4.8-2.06-4.8-6.88V129.2c0-4.92,2-7,4.8-7,2.59,0,4.18,1.73,4.56,5H80.3c-.22-1.77-.87-2.71-2.13-2.71-1.5,0-2.23,1.34-2.23,4.64V131c0,3.31.73,4.64,2.23,4.64s2-1.11,2.13-3.57H78.22v-2.24Z"></path><path class="cls-1" fill="#54585A" d="M92.05,128.69h4.23v-6.28h2.56v15.31H96.28v-6.81H92.05v6.81H89.48V122.41h2.57Z"></path><path class="cls-1" fill="#54585A" d="M20.52,147.35l2.72,11,2.72-11h2.79l-4.34,15.31H22.07l-4.32-15.31Z"></path><path class="cls-1" fill="#54585A" d="M32.6,162.66l4.27-15.31H39.4l4.29,15.31H41l-.8-3.17H36.08l-.78,3.17Zm4-5.39h3l-1.46-6Z"></path><path class="cls-1" fill="#54585A" d="M52.17,160.44h5.2v2.22H49.6V147.35h2.57Z"></path><path class="cls-1" fill="#54585A" d="M65.89,160.44h5.2v2.22H63.32V147.35h2.57Z"></path><path class="cls-1" fill="#54585A" d="M84.81,147.35v2.24h-5.2v4h4.65v2.22H79.61v4.59h5.2v2.22H77V147.35Z"></path><path class="cls-1" fill="#54585A" d="M90.1,147.35h2.83l2.31,6,2.3-6h2.83l-3.85,8.92v6.39H94v-6.39Z"></path><path class="cls-2" fill="#D14124" d="M17.58,66.68c0-.07.06-.1.14-.07S17.56,66.66,17.58,66.68Z"></path><path class="cls-2" fill="#D14124" d="M39.44,41.39a.15.15,0,0,0,0-.12l0,0S39.44,41.36,39.44,41.39Z"></path><path class="cls-2" fill="#D14124" d="M17.58,66.68s.18,0,.16.06S17.59,66.76,17.58,66.68Z"></path><path class="cls-2" fill="#D14124" d="M39.76,53.68a1.45,1.45,0,0,0,.47-.29l-.62-.17Z"></path><path class="cls-2" fill="#D14124" d="M36.3,15.48s0-.07-.07-.1,0,.07,0,.1Z"></path><path class="cls-2" fill="#D14124" d="M38.85,51.54a.1.1,0,0,0,0,.16v-.18Z"></path><path class="cls-2" fill="#D14124" d="M32.33,17.19s.06,0,.06,0,0,0-.06-.06S32.24,17.16,32.33,17.19Z"></path><path class="cls-2" fill="#D14124" d="M39,47.5a.83.83,0,0,0-.07.13s0,.07,0,.08h0s.09,0,.09-.08Z"></path><path class="cls-2" fill="#D14124" d="M39.42,52.65l-.21-.19c-.12,0-.25-.08-.33,0a.18.18,0,0,0,.09.3l.26.15c0,.1.13.19.38.27-.06-.19-.12-.39-.18-.57Z"></path><path class="cls-2" fill="#D14124" d="M40.23,53.39a2.11,2.11,0,0,1,.48.17c-.1-.24,0-.49-.25-.64l-.11.08a.17.17,0,0,1,.1.16A1.58,1.58,0,0,1,40.23,53.39Z"></path><path class="cls-2" fill="#D14124" d="M39.71,35.5h0a.5.5,0,0,0-.13-.12A.12.12,0,0,0,39.71,35.5Z"></path><path class="cls-2" fill="#D14124" d="M40.23,50.1s.12,0,.14,0v0l-.2-.07h0A.15.15,0,0,0,40.23,50.1Z"></path><path class="cls-2" fill="#D14124" d="M18.5,31.77h.06s0,0,0,0h-.05Z"></path><path class="cls-2" fill="#D14124" d="M9.53,12h0Z"></path><path class="cls-2" fill="#D14124" d="M10.85,12.45h0s0,0,0,0h0Z"></path><path class="cls-2" fill="#D14124" d="M9.45,15.78h0l.09,0c0,.08,0,.09-.08,0S9.46,15.79,9.45,15.78Z"></path><path class="cls-2" fill="#D14124" d="M19.47,7.15h0Z"></path><path class="cls-2" fill="#D14124" d="M12.12,11.86h0c.06-.07,0,0,0,0h0s0,0,0,0v0s0,0,0,0Z"></path><path class="cls-2" fill="#D14124" d="M22.65,4.48l0,0h0Z"></path><path class="cls-2" fill="#D14124" d="M42.4,11.1l0,0h-.05Z"></path><path class="cls-2" fill="#D14124" d="M9,13.24v0H9v0Z"></path><path class="cls-2" fill="#D14124" d="M31.94,3.28c0-.1.13-.19,0-.28C31.82,3.1,31.9,3.19,31.94,3.28Z"></path><path class="cls-2" fill="#D14124" d="M39.34,8.92c0-.08-.1-.08-.15,0s0,.16.07.22S39.39,9,39.34,8.92Z"></path><polygon class="cls-2" fill="#D14124" points="26.95 3.61 26.9 3.61 26.93 3.67 26.95 3.61"></polygon><polygon class="cls-2" fill="#D14124" points="38.01 8.25 37.94 8.24 37.97 8.3 38.01 8.25"></polygon><path class="cls-2" fill="#D14124" d="M42.4,11.1l0,0s0,0,0,0Z"></path><path class="cls-2" fill="#D14124" d="M42.29,11.17s0,0,.05-.06h0S42.28,11.17,42.29,11.17Z"></path><polygon class="cls-2" fill="#D14124" points="18.29 34.17 18.26 34.11 18.22 34.16 18.29 34.17"></polygon><path class="cls-2" fill="#D14124" d="M92.64,106.17l.06.06s.1-.09.11-.13-.07-.13-.17-.14Z"></path><path class="cls-2" fill="#D14124" d="M92.62,105.92v0s0,0,0,0v0Z"></path><path class="cls-2" fill="#D14124" d="M92.52,105.91a.09.09,0,0,0,.1,0v0Z"></path><path class="cls-2" fill="#D14124" d="M98.46,108.21a.36.36,0,0,0,.07.1l0-.07,0-.07Z"></path><path class="cls-2" fill="#D14124" d="M60.71,36.48l0,0h0Z"></path><path class="cls-2" fill="#D14124" d="M108.14,91.87a71.11,71.11,0,0,0-19.91-1.79c.37,1.7.63,2.89.65,3.06a29,29,0,0,1,.54,5.64c.09.34.2.67.28,1,.15.09.37.13.41.33s-.39.45-.23.75a3.77,3.77,0,0,1,.43,1.43c0,.3.26.63.32,1s0,.76.33,1.08c0,0,0,.17,0,.26a1.09,1.09,0,0,0,.47,1.19,1.9,1.9,0,0,1,.32.36,1.57,1.57,0,0,0,0,.48,1.92,1.92,0,0,0,.17.43c0-.3.07-.32.43-.39v0l0,0h0l-.06-.26h0l0,0h0c-.2,0-.33,0-.35-.21s0-.13,0-.2a3.46,3.46,0,0,1,.52-.11s0,0,0,0,.11-.06.11,0l.11,0,.64.24a3.22,3.22,0,0,1,.39-.37,2.6,2.6,0,0,1,.5-.26l.88.46c.28.3-.06.54.16.71s.53.24.71,0c0-.22-.3-.22-.28-.41s.26-.18.34-.09.52.37.35.69l0,0c.32,0-.65.62-.37.65a.43.43,0,0,1,.41.54l.61-.2c.06-.15-.15-.39.17-.52.19.31.3.65.73.76.28-.2.54-.39.91-.22,0,0,0,.09.07.15s.36,0,.45-.15.11-.28.26-.28a.81.81,0,0,0,.8-.36c.06-.07.19,0,.28.08s-.26.28-.2.48.18.19.24.13a1.56,1.56,0,0,1,1.23-.31.17.17,0,0,0,.17-.17c0-.11-.15-.11-.25-.11-.35,0-.37-.08-.16-.39l.31.07.3,0c.32-.36.32-.36,1-.56.15.09.28.2.43.28.23-.11.58.09.75-.17,0-.24-.43-.26-.3-.54a2,2,0,0,0,1.81.28,5.46,5.46,0,0,0,0-2.72c-.09-.13-.32-.26-.32-.45v0h0s.06.07.1.11.08-.09.08-.14,0-.14-.08-.14a.05.05,0,0,0,0,0v0a1.55,1.55,0,0,1,1.17,0c.28-.39-.28-.52-.35-.84.18-.17.35-.37.52-.56a.63.63,0,0,0,.22-.46v-.06c-.11-.54,2.31-1.51,2.31-1.51S109,96,108.14,91.87Zm-16.62,8.46c0,.11,0,.26-.2.35-.26-.09-.58.15-.86,0a.91.91,0,0,1,1.16-.61C91.73,100.16,91.58,100.25,91.52,100.33ZM105.77,103h0S105.77,103,105.77,103Z"></path><path class="cls-2" fill="#D14124" d="M62.92,24.37c0-.16-.09-.28-.34-.23,0,.11,0,.22-.08.38C62.77,24.55,62.91,24.51,62.92,24.37Z"></path><path class="cls-2" fill="#D14124" d="M63.07,24.94a.18.18,0,0,0-.22-.12s-.07.09-.07.14a.14.14,0,0,0,.2.13S63,25,63.07,24.94Z"></path><path class="cls-2" fill="#D14124" d="M62.57,26.85c0,.07.07.1.15.06a.23.23,0,0,0,.17-.28s-.11,0-.17-.06A.21.21,0,0,0,62.57,26.85Z"></path><polygon class="cls-2" fill="#D14124" points="109.48 98.09 109.5 98.16 109.55 98.1 109.48 98.09"></polygon><path class="cls-2" fill="#D14124" d="M92,107.06v0h0Z"></path><path class="cls-2" fill="#D14124" d="M62.54,31.61a2.37,2.37,0,0,0-.32-.08.6.6,0,0,0,.14.26C62.43,31.73,62.51,31.68,62.54,31.61Z"></path><path class="cls-2" fill="#D14124" d="M61.91,31.06h0a.05.05,0,0,0,0,0Z"></path><path class="cls-2" fill="#D14124" d="M109.69,99h0Z"></path><path class="cls-2" fill="#D14124" d="M62.33,31.81h0l0,0Z"></path><path class="cls-2" fill="#D14124" d="M83.88,69.14l0,.06h0l0,0Z"></path><path class="cls-2" fill="#D14124" d="M61.58,32.88c0-.24,0-.24-.34-.21Z"></path><path class="cls-2" fill="#D14124" d="M56.07,56.15c.13.05.26.1.39,0,0-.9,0-.9.73-1.33-.16-.13-.47,0-.57-.38.09-.22.58-.53.17-1l-.81.66c-.16.35.26.46.29.77A2.64,2.64,0,0,1,55.79,56C55.89,56.06,56,56.12,56.07,56.15Z"></path><path class="cls-2" fill="#D14124" d="M55.9,58.79a1.16,1.16,0,0,1,.13-.2c.21-.06.38.1.55,0a.81.81,0,0,0,.12-.14c.14-.3.14-.3-.3-.38l0,0v0A.24.24,0,0,1,56,58a1.27,1.27,0,0,1-.13-.19c-.15.08-.39.13-.42.24a4.16,4.16,0,0,1-.26.72.37.37,0,0,0,.18.49C55.73,59.27,55.81,59,55.9,58.79Z"></path><path class="cls-2" fill="#D14124" d="M59.54,45.6c-.28-.18-.64-.26-.87-.61-.17-.06.14-.41-.23-.47s-.19.23-.26.36-.26.31-.16.6c0,.08.15.22.24.37.13,0,.28-.11.38-.07A.93.93,0,0,0,59.54,45.6Z"></path><path class="cls-2" fill="#D14124" d="M58.26,45.85h0s0,0,0,0h0Z"></path><path class="cls-2" fill="#D14124" d="M59.57,45.58l0,0h0Z"></path><path class="cls-2" fill="#D14124" d="M106.45,104.4a3,3,0,0,0,.3.93c-.3.28-.2.58-.06.89l.31-.12c0-.39.08-.78.15-1.17a.59.59,0,0,0-.26-.58C106.78,104.26,106.63,104.24,106.45,104.4Z"></path><path class="cls-2" fill="#D14124" d="M55.86,57.76s0,0,0,0l0,0h0S55.86,57.78,55.86,57.76Z"></path><path class="cls-2" fill="#D14124" d="M56.2,57.47c.15-.12.46,0,.47-.33s-.33-.43-.56-.64c-.27.09-.55.15-.62.46s.36.49.37.8C56,57.72,56.09,57.57,56.2,57.47Z"></path><path class="cls-2" fill="#D14124" d="M67.88,8.49c-.22,0-.33.11-.48.18S68.17,9,67.88,8.49Z"></path><path class="cls-2" fill="#D14124" d="M93.63,107.28a1.31,1.31,0,0,0,1.38.08c-.27-.18-.64-.14-.78-.43Z"></path><path class="cls-2" fill="#D14124" d="M92.42,107.65c-.08.19-.15.38-.44.37a.86.86,0,0,0,.35.09.49.49,0,0,0,.28-.25C92.66,107.74,92.58,107.65,92.42,107.65Z"></path><path class="cls-2" fill="#D14124" d="M92,108a0,0,0,0,0,0,0h0Z"></path><path class="cls-2" fill="#D14124" d="M92.4,107.65h0s0,0,0,0Z"></path><path class="cls-2" fill="#D14124" d="M93.28,107.87a.18.18,0,0,0,.22.14c.12,0,.13-.12.11-.21a.17.17,0,0,0-.21-.14A.17.17,0,0,0,93.28,107.87Z"></path><path class="cls-2" fill="#D14124" d="M62.27,29.79c.18.12.34.23.45,0A.43.43,0,0,0,62.27,29.79Z"></path><path class="cls-2" fill="#D14124" d="M62,30.78c0-.05,0-.12,0-.15a1.81,1.81,0,0,0-.18-.21.19.19,0,0,0,0,.32S61.89,30.77,62,30.78Z"></path><path class="cls-2" fill="#D14124" d="M61,34.65s0-.13-.08-.14-.19,0-.2.11a.15.15,0,0,0,.09.14C60.91,34.81,61,34.73,61,34.65Z"></path><path class="cls-2" fill="#D14124" d="M107.17,102.41h0c-.11.42-.11.42.16.54C107.43,102.74,107,102.64,107.17,102.41Z"></path><path class="cls-2" fill="#D14124" d="M82.72,4.52h0s0,0,0,0Z"></path><path class="cls-2" fill="#D14124" d="M61.33,30.28s0,0,0-.06a.13.13,0,0,0-.07,0c-.09,0-.11,0,0,.08A.08.08,0,0,0,61.33,30.28Z"></path><path class="cls-2" fill="#D14124" d="M99,108.89h0a.53.53,0,0,1,0,.17c0,.09,0,.12.08.08s0-.06,0-.09A1.36,1.36,0,0,0,99,108.89Z"></path><polygon class="cls-2" fill="#D14124" points="67.02 11.8 66.96 11.79 66.98 11.85 67.02 11.8"></polygon><path class="cls-2" fill="#D14124" d="M56.42,58v0l0-.08S56.42,57.93,56.42,58Z"></path><polygon class="cls-2" fill="#D14124" points="109.67 99.96 109.7 99.97 109.64 99.93 109.67 99.96"></polygon><path class="cls-2" fill="#D14124" d="M96.41,107.74l0,.05v-.07Z"></path><polygon class="cls-2" fill="#D14124" points="80.78 47.68 80.75 47.74 80.8 47.74 80.78 47.68"></polygon><polygon class="cls-2" fill="#D14124" points="85.72 68.89 85.76 68.85 85.7 68.85 85.72 68.89"></polygon><path class="cls-2" fill="#D14124" d="M60.71,37.43l0,0h0Z"></path><path class="cls-2" fill="#D14124" d="M60,42.62h0v0Z"></path><path class="cls-2" fill="#D14124" d="M59.43,42.94l.14.31c.19,0,.15-.31.39-.18v0h0c0-.14,0-.27,0-.41A.6.6,0,0,0,59.43,42.94Z"></path><path class="cls-2" fill="#D14124" d="M60,43s0,0,0,0l0,0C60.06,43,60.05,43,60,43Z"></path><path class="cls-2" fill="#D14124" d="M38.27,52.71a.51.51,0,0,0,.24-.64.87.87,0,0,1,0-.77c0-.09-.06-.23-.24-.2s.09.47-.23.6c-.26,0-.25-.29-.42-.34-.36-.08-.53.11-.74.25l0,0h.11c0,.08,0,.08-.07,0l0,0h-.06l0,0h0c-.21-.13-.54-.09-.68-.32.15-.31.5-.13.73-.23l.71-.32.24.17c0-.26.41-.17.51-.38s0-.46,0-.68c-.41-.06-.29.4-.66.38L37.64,50c.19-.48.64-.58,1.12-.64.18.12.36.22.41.4a2,2,0,0,0-.37.89l.24.16h0l.2-.4h0l0-.1.09.07-.12,0v0a.63.63,0,0,0-.19.4h0c.1.22.41.31.44.56-.18.17-.38-.18-.57,0v.07s.07,0,.1,0,.1.07.06.13-.11.1-.14.09,0,0,0,0,0,.28,0,.43l.37.33h0a.86.86,0,0,1,.16.1l0,.08c.46-.1.4.3.6.45s.16,0,.21,0a.48.48,0,0,0,.11-.09c-.16-.09-.45,0-.47-.25a.51.51,0,0,1,.42-.37c.31.11.51.37.89.43.21-.25.41-.52.64-.78.07-.07.18-.06.29.07-.15.35-.58.63-.54,1.07.29,0,.33-.38.71-.34a1.06,1.06,0,0,1,.22.07.69.69,0,0,0,.93-.07.43.43,0,0,1,.25-.11,1.7,1.7,0,0,0,1-.26c.29.13,0,.39.35.52.13-.31,2.11-.19,2.49-.26.28.13.3.47.64.56.26-.23-.34-.48,0-.7.32,0,.27.32.52.38h0c.35-.31.79-.22,1.23-.27.06.36-.22.42-.44.52.21.15.41.31.59.43s.55.06.77-.12a1.39,1.39,0,0,0,.14-1,10,10,0,0,1,0-2,13.74,13.74,0,0,0,.14-2.21c0-.4,0-.76.25-1.1a.46.46,0,0,0,.06-.26,15.87,15.87,0,0,1,.17-2,7.74,7.74,0,0,0-.06-2,4,4,0,0,1,.09-1.58c.11-.46-.17-.88,0-1.32-.13-.26-.27-.52-.4-.79l-.42,0c0,.07-.08.14-.15.16a5.86,5.86,0,0,1-.58.1c-.21-.15-.11-.33-.06-.49s.24,0,.35,0l0-.25c-.16-.18-.46-.13-.52-.33a.38.38,0,0,1,.17-.33,3.09,3.09,0,0,0,1.48-.52.44.44,0,0,0,0-.48l-.66-.15-.91.28-1.28-.32a.15.15,0,0,0-.19.07c-.25.26.21.46.14.69l-.26.21c-.27.57.09,1.08-.36,1.47-.29-.12-.29-.37-.37-.54s-2.14-.5-2.2-.74c.14-.23,2.06.23,2.24.14a.87.87,0,0,0,.31-.94c-.09-.13-.46-.12-.42-.49l.42-.31c0-.1,0-.21,0-.33s0-.24.17-.28c.34,0,.27.32.48.41s.51.18.71.26h.17a1.41,1.41,0,0,1,1.28,0c.21.14.46,0,.71-.09a2.55,2.55,0,0,0,.07-.87.56.56,0,0,0-.37-.57c.37-.41.37-.41.18-.81-.1,0-.21.05-.3-.09a12.27,12.27,0,0,0-.05-1.81c-.34,0-.42.15-.4.32a1.52,1.52,0,0,0,.22.49c-.09.17-.18.32-.28.52-.3-.2-.65-.07-.95-.16-.13.13,0,.32-.17.42s-.26-.24-.35-.24c-.4,0-.57-.09-.55-.44,0-.12-.15-.2-.3-.22h-.36l0,0h0a1.69,1.69,0,0,1,.45,1,.57.57,0,0,1-.23.47c-.19,0-.27-.09-.26-.21a1.25,1.25,0,0,0-.14-.68.29.29,0,0,0-.27,0,7.32,7.32,0,0,1-2-.4c0-.07,1.72.11,1.78.06a1.33,1.33,0,0,1,.66-.22l0,0h0c.1-.11.13-.26.32-.29.46-.06.67.37,1.09.42l.48-.24a2.41,2.41,0,0,1,.1-1h0l-.36.41a.56.56,0,0,1-.58-.11c-.16-.1-.25-.29-.55-.27l-.42.29c-.26-.08-.26-.24-.1-.33a4.44,4.44,0,0,1,.77-.36c.27,0,.22.23.41.36s.54,0,.83,0h0a1.37,1.37,0,0,0,1.5-.14,1.19,1.19,0,0,0,0-.85,1.59,1.59,0,0,1-.16-.93.42.42,0,0,0-.2-.44h0v.28l-1.26.44c-.22-.11-.22-.23-.06-.35A3.93,3.93,0,0,1,51,29.51v0a0,0,0,0,1,0,0h0a.42.42,0,0,1-.11-.41c0-.14.14-9.17,0-9.28s.18-.4,0-.56.13-.39,0-.58l-.43-.42c0-.37,0-.75,0-1.1a.37.37,0,0,0-.49,0,1,1,0,0,1-1,.23c-.14-.08.05-.32-.21-.34a2,2,0,0,1-.7-.08.42.42,0,0,0-.4.09l0,0,0,0c-.18.25,0,.52,0,.77a12.21,12.21,0,0,1-2.49-.23,1.08,1.08,0,0,0,0-.59c0-.23.25-.42.13-.66l-1-.15c-.13.11-.14.35-.41.33a.57.57,0,0,1-.13-.45h0v0a1.48,1.48,0,0,1-.59-1.21c.25,0,.4.07.43.21.07.33.11.67.16,1l0,0h0l.88-.36c0-.54-.44-.58-.82-.65l-.27-.58c.09-.15.27-.33.22-.41-.16-.27.05-.56-.1-.82h0c-.1,0-.26.06-.32-.08h0l0,0,0,0,.32.08h0a1.28,1.28,0,0,1-.27-.72h0c.23-.05.27.1.36.21a.45.45,0,0,0,.65.12l.42-.67c-.18-.19-.38-.36-.27-.62a1.51,1.51,0,0,0,.68-.41,1.6,1.6,0,0,0,1.14.76c-.06-.24-.32-.4-.23-.66s-.42-.23-.4-.44a.6.6,0,0,0-.33-.61.83.83,0,0,0-.29.1,6.1,6.1,0,0,0-.44.45,1,1,0,0,0-.74.06.46.46,0,0,1-.66-.21c-.07.16.12.32-.18.47-.1.07-.23-.2-.34-.16a1.08,1.08,0,0,0,.22-.21c.09-.11,0-.17-.24-.19-.1.17-.2.33-.29.5a.66.66,0,0,0,.29-.08c-.16.25.11.43-.06.64a.76.76,0,0,1-.5-.5c-.1-.34-.62-.13-.71-.45s-.55-.57-.91-.78c-.32.11-.43.37-.6.59h0c0-.06.07,0,0,0s0,0,0,0h0c-.07-.09-.12-.21-.22-.25a1.74,1.74,0,0,1-.65-.64c-.4.1-.71.25-.78.61h0a1.15,1.15,0,0,1,.27-.21c.19-.08.31,0,.39.19a.44.44,0,0,1-.66,0l0,0v0h0c-.21-.26-.09-.64-.44-.85l-.46.15c-.22,0-.32-.26-.58-.2s-.17.34-.45.31a.19.19,0,0,1-.11-.29,1.8,1.8,0,0,1,.88-.58s0-.1.05-.16c-.21-.16-.48,0-.7-.1s-.29-.18-.18-.37.33.08.48,0,.3-.5.44-.9c-.49.22-.93.08-1.31.26,0,0-.14,0-.2,0s-.18-.1-.16-.19.07-.1.12-.16l.79,0c.13-.11.23-.19.09-.33a1,1,0,0,0-.27-.06,2.46,2.46,0,0,0-.71.08.29.29,0,0,1-.4-.16c.13-.25.69-.06.64-.48L35.33,6l-.18-.4c.37-.16.41-.25.29-.44s-.4-.14-.4-.36.36,0,.39-.25a.55.55,0,0,0-.27-.37c-.19.11-.18.38-.42.43-.54,0,0-.43-.35-.49s-.13.43-.49.36a.49.49,0,0,1-.16-.24l.07-.08c0-.06,0-.11-.08-.11s-.07,0-.08,0h0A.35.35,0,0,0,33.38,4a2.27,2.27,0,0,0-.4.31.9.9,0,0,1,.2-.51,1,1,0,0,0,1-.26c-.07-.2-.28-.17-.4-.25L33.61,3c-.42-.08-.72.17-1.14.17.16.36.33.7.18,1a.6.6,0,0,0,0,.22.44.44,0,0,1-.14,0c-.28-.35-.41-.53-.73-.58l.2-.32h0a1.6,1.6,0,0,1-.6-.33h0c0-.26-.38-.18-.34-.43a.85.85,0,0,1,.48-.05,1.81,1.81,0,0,0,.52,0c.17,0,.3-.15.15-.32-.87.14-.88.14-1.63-.72-.13-.28.36-.37.26-.62s-.47-.37-.72-.53a.33.33,0,0,0-.39,0,2.19,2.19,0,0,1-.12.33,1.36,1.36,0,0,1-.93-.31c-.09-.11-.24-.06-.31.07.12.35.47.56.63.84.3,0,.46-.32.71-.08.07.23-.18.37-.21.58s-.51.11-.41.43c.35.17.84-.14,1.13.23a.33.33,0,0,1-.44.1c-.13,0-.27-.12-.39,0-.53.31-1.08.09-1.62.08-.2.07-.14.35-.41.36a2.8,2.8,0,0,1-.14-.25,2.71,2.71,0,0,0-.29,0,.41.41,0,0,1-.35-.16c-.14-.16.07-.4-.2-.56s0-.42-.1-.63.07-.15,0-.25a.36.36,0,0,0-.35-.1l.05.46L25.55,2c-.12.18,0,.42-.23.61l-.41.11c-.27-.05-.28-.32-.55-.32-.05.16-.1.31-.16.52-.48-.09-.72.31-1.2.41-.17-.16-.47,0-.85-.17.34-.23.19-.72.79-.8.14.12-.06.38.24.43.19-.11.44-.15.51-.35s-.32-.17-.3-.35l0,0a.28.28,0,0,1-.23-.19,2,2,0,0,0-1,.19c0-.16.07-.21.18-.25a.53.53,0,0,0-.76.2.68.68,0,0,1-.85.33,1.43,1.43,0,0,1-.87.79,2.15,2.15,0,0,1-1.29.24c-.29.18-.69.29-.66.71l-.74.66a1.08,1.08,0,0,0-1.13.31l-.05.26c-.16.12-.35-.16-.48.12a1.66,1.66,0,0,0,1.14.31c-.11-.11-.24-.23,0-.43l.64.54c.1.28-.07.44-.13.63l.35.15A.51.51,0,0,0,17.73,6l-.51-.71c.2-.12.25-.36.53-.4a.44.44,0,0,1,.35.29v0a.42.42,0,0,1,.53.29c.12.27.24.55.37.82,0,.06.16.1.21.13.26,0,.35-.24.61-.2.29.35-.25.4-.33.61s.05.15.07.23h0a.32.32,0,0,1,.08-.12.24.24,0,0,1,.17,0c.05,0,0,.08-.08.1l-.17,0s0,0,0,0v0h0c0,.29-.47.24-.47.58.31.11.12.38.19.61h0l.31-.3c.13.23.13.23-.16.4-.08,0,0-.16-.15-.1h0v0c-.49-.47-.5-.47-1-.56,0,.16,0,.33,0,.49h0c.06,0,.13,0,.16,0s0,0,0,0l-.12-.09h0v0c-.19,0-.39.15-.55,0a.45.45,0,0,1,0-.11.12.12,0,0,0,0-.12c0-.25.23-.47.21-.72s-.22-.23-.42-.26a.88.88,0,0,1-.8.3c-.08-.11-.16-.32-.27-.33-.45,0-.49-.39-.61-.6A.85.85,0,0,0,15,5.78c-.78.72-1.9,1.18-2.46,2.14a1.36,1.36,0,0,0-1.08.75.47.47,0,0,1-.34.3,1.62,1.62,0,0,0-.83.66h0l0,0h0c-.06.06-.17.13-.16.17a.61.61,0,0,1-.26.68c-.09.08-.08.24-.1.38H10l.28,0a1.71,1.71,0,0,1,1.19-.37c.16-.1.09-.25.12-.38h0v0a1.23,1.23,0,0,1-.27,0s0-.09,0-.14,0,0,.07,0,.25,0,.23.19h0s0,0,0,0a.88.88,0,0,1,.48.27c.21.19.19.28,0,.6l0,0c.06.32.38.47.62.7,0,.22-.06.45-.08.69s-.48,0-.55.29-.33.35-.61.46c-.07-.26.09-.53-.11-.75,0,.07-.07.2-.11.2-.39,0-.47.44-.86.49-.07,0-.12.1-.17.2l0,0c-.07,0-.11.06-.08.12s0,0,0,.05l0,0,.12,0s0,0,0,0,.1.06.08,0h-.13s-.06,0-.1,0c-.08-.21-.28-.13-.44-.14a5.93,5.93,0,0,1-.73,0h0a1.17,1.17,0,0,1-.37-.08c-.17-.24,0-.44.09-.69l.55,0c.13.19-.18.19-.12.28a.25.25,0,0,0,.3.24c.28-.06.48-.28.8-.27a.66.66,0,0,0-.57-.41.85.85,0,0,1-.69-.58.45.45,0,0,0-.45.26,2.91,2.91,0,0,0-.21.48c0,.16-.18.23-.32.32l-.08.08-.06.28-.56.11a.92.92,0,0,0-.17.61c0,.11,0,.28-.09.33a.51.51,0,0,0-.26.55c0,.3-.25.38-.46.64.47.06.62.53,1.16.49.19,0,.3.14.42.25s.21.16.12.29a.27.27,0,0,1-.28-.07,1.8,1.8,0,0,1-.2-.19h0a.77.77,0,0,1-.89.26c0-.15,0-.29,0-.42A.3.3,0,0,0,6.22,16a2.8,2.8,0,0,0-.4.27l0,0c.13.1.14.26,0,.26a.38.38,0,0,0-.45.29c-.06.22,0,.47-.22.67s-.1.47-.06.7l-.32.11c-.09.25-.2.51-.27.76a3.8,3.8,0,0,1-.24.85.81.81,0,0,0,0,.77c-.55.24-.55.68-.62,1.08a.86.86,0,0,1-.14.49,2.89,2.89,0,0,0-.33,1.55,1.15,1.15,0,0,1,0,.49,16.47,16.47,0,0,1-.41,1.82,6.55,6.55,0,0,1-.28,1.12.72.72,0,0,0,.14.92s0,.11,0,.15-.35.14-.33.33.27.27.21.49l-.4.28c0,.14.1.3,0,.43s-.22.25-.19.4A9.6,9.6,0,0,1,1.73,32c0,.21.19.45.08.58a1,1,0,0,0-.22.65c0,.24-.13.52,0,.7.19.34-.23.48-.21.73s0,.45.06.62,0,.39-.06.59a.52.52,0,0,0,.06.16c.1.07.28,0,.3.26s-.42,0-.47.28l.31.71a.78.78,0,0,0-.34.45A13.05,13.05,0,0,0,1,39.62a1.25,1.25,0,0,0,.25,1c-.18.11-.57.17-.37.48.11.11.28-.06.35.07.15.36-.38.31-.43.59a3.37,3.37,0,0,1,.06.66,1.8,1.8,0,0,0,.05.8,3.68,3.68,0,0,0,.32.58c-.12.05-.28.07-.29.12a2.92,2.92,0,0,0-.1,1.31,2.36,2.36,0,0,1,.05,1.29,1.1,1.1,0,0,0,0,.36c0,.86-.09,1.71-.13,2.57,0,.36-.07.72-.07,1.07,0,.92,0,1.85,0,2.77,0,.2,0,.41,0,.62s.32.32.23.62c-.26.09-.3.31-.31.56a18.82,18.82,0,0,1-.05,2.49c.14.27,0,.52,0,.78a4.19,4.19,0,0,0,.11.78l0-.05,0,0a2,2,0,0,0-.12,1.14,7,7,0,0,1,0,1.94c-.13.68.2,1.35-.09,2-.05.88-.09,1.76-.13,2.64h0c-.38,15.37,5.86,25,11,30a31.93,31.93,0,0,0,22.34,9c.93,0,1.86,0,2.81-.13a29.91,29.91,0,0,0,16.73-6.48,90.75,90.75,0,0,1,12.57-4.82.15.15,0,0,1,.11,0c.75-.24,1.51-.45,2.24-.67a4.13,4.13,0,0,0,.5-.15h0a.62.62,0,0,1,.09-.11A1.29,1.29,0,0,1,69.1,93c.63-.35,1.26-.67,1.84-1,.47,0,.15.41.5.46.47-.2.23-.59.56-.84.3,0,.65,0,.84.21v0c.19,0,.37.09.54.11.37,0,.37-.35.8-.48l.73,0c.41-.17.24-.52.65-.73.24,0,.54,0,.89-.07l.75.63c.33-.07.65-.09,1-.13a.2.2,0,0,0,.11,0,1.83,1.83,0,0,1,.39-.09.16.16,0,0,0,.09,0c4-.82,6.67-1.21,6.86-1.32a75.22,75.22,0,0,0-23.41,1.11c9.42-4,27-7.14,45-4.9.24,0,3.33,1.83,3.53,1.9.24-.3.12-.28.4-.54.15,0,.26,0,.35.11,0,.38-.23.39-.11.84a1,1,0,0,0,.62-.31c.1-.3,0-.28,0-.54l.33-.14c0-.17,0-.38,0-.6s-.3-.33-.16-.58c.14-.06.24,0,.34.08s0,0,0,0,0-.13.08-.17a.22.22,0,0,1,.07-.2c.08.11,0,.15-.07.2a.27.27,0,0,1-.08.17s0,0,0,0a.73.73,0,0,0,.7,0,1.54,1.54,0,0,1,.43,0,4.66,4.66,0,0,1,.54-.94l.9-.12.39-.49c0-.32-.37-.39-.3-.69l.31-.41c.1-.29-.15-.44,0-.65l.37-.24h0l-.3-.22s0-.09,0,0,0-.08,0,0l.29.22c.26,0,.4-.2.57-.35-.06-.3-.49-.35-.42-.69.2-.17.4.2.63-.06,0-.45.06-.94.08-1.43a.89.89,0,0,0-.11-.35c-.16-.36-.15-.39.2-.49s.42-.16.38-.42a11.12,11.12,0,0,1,.2-2c-.08-.21-.18-.42-.24-.63s-.38-.22-.44-.47a.81.81,0,0,1,.25-.58,1.53,1.53,0,0,0,.35-.75c0-.17.1-.38-.06-.54s-.13-.47.11-.63a.74.74,0,0,0,.3-.83,2.39,2.39,0,0,1-.74-.42,2.68,2.68,0,0,0-1.37-.76c-.63-.23-1.27-.42-1.9-.64l0-.12c-.31-.09-.64-.15-1-.23l-1.26-.53-.06.21a53.66,53.66,0,0,0-8.81-1.19,4.48,4.48,0,0,0-.45-1.2.51.51,0,0,1-.07-.28c0-.91-.39-1.77-.47-2.65a1.72,1.72,0,0,0-.35-.05c0-.24.18-.39.11-.62-.15-.72-.26-1.43-.39-2.14a16.24,16.24,0,0,1-.62-3.52,1.26,1.26,0,0,0,0-.28c-.19-.93-.41-1.86-.6-2.79-.13,0-9.42-48.34-9.55-48.86,0-.13,0-.28-.13-.34s-.19-.37-.17-.61c.07-.47-.21-.63-.78-.56-.25.09-.1.32-.34.35-.17-.18.09-.46-.17-.61a1.28,1.28,0,0,1-1.39-.09.74.74,0,0,0-.62,0c0,.07-.13.13-.17.22s-.09.24-.28.21c-.2-.28.19-.62-.22-1a2.63,2.63,0,0,0-1.1-.15c.15.2.47.24.41.46-.24.54-.84.15-1.21.36-.2-.1-.2-.41-.52-.43s-.45.28-.69.41h0a.28.28,0,0,0-.13,0s0,.06,0,.09l0,0s0,0,0,0c-.26-.15,0-.32-.13-.45-.28-.17-.62,0-.92-.13.08-.15,0-.37.21-.52h.9l0,0h0A3.11,3.11,0,0,0,82,3c-.3.09-2,1.49-2.24,1.58a.41.41,0,0,1-.13.08,2.85,2.85,0,0,0-1.08-.6,5.06,5.06,0,0,1-.46.24,3.07,3.07,0,0,1-.51.26c-.16-.09-.07-.33-.35-.35-.22.17-.37.41-.73.45s-.57-.25-.89-.28-.6.28-.91,0c-.39,0-.75-.13-1.14,0a1,1,0,0,1-.91-.13,1,1,0,0,0-1.06-.17.91.91,0,0,1-.82,0c-.32-.24-.56-.15-.86,0a1.51,1.51,0,0,0-.71,1,7.65,7.65,0,0,1-.33,1c0,.17.11.26.18.41-.11.06-.28.13-.33.24-.23.6-.45,1.23-.67,1.85a1.76,1.76,0,0,1,0,.91,2.74,2.74,0,0,1-.45,1.6v0a4.7,4.7,0,0,1-.28,1.19l-.07.19c0,.2,0,.39,0,.54,0,1-.84-.62-1,.37-.41,2.5-1.39,4.88-1.86,7.36-.39,2.05-.76,4.1-1.14,6.13l.14-.08a.55.55,0,0,0,0,.59c.16-.11.33-.21.49-.3a.33.33,0,0,0,0-.46l-.42.16a.87.87,0,0,1,.35-.27c.28,0,.46.17.46.45a1.05,1.05,0,0,0-.35.13s0,0,0,0a3.35,3.35,0,0,1-.41.43.43.43,0,0,0-.09.16.35.35,0,0,1,.17.36c0,.18-.47.2-.28.5.13,0,.24.06.2.15a8.16,8.16,0,0,1-.39.86h0l-.2.07h0l.18-.08h0a.46.46,0,0,0-.09.15,1.18,1.18,0,0,1-.36.3c-.09.35-.2.69-.31,1a1.22,1.22,0,0,1,.37.16.28.28,0,0,1,0,.3c.13,0,.13.11.11.3a.32.32,0,0,1-.3-.13l0,0a1.5,1.5,0,0,1,0,1c-.09.28-.13.56-.2.84.35.56-.08,1.06-.15,1.64a.68.68,0,0,0-.86-.43c0,.1-.15.21.09.28,0,.28,0,.54.06.9.06-.1.26-.51.26-.51A.37.37,0,0,1,62,36a4.25,4.25,0,0,1-.5,2c-.26,0-.26-.17-.26-.3a.41.41,0,0,1,0-.15h0a.56.56,0,0,0,.13-.07l-.11,0h0a.53.53,0,0,1,0-.17s-.11,0-.19-.07a.32.32,0,0,0-.07.2.36.36,0,0,0-.33.1c.1,0,.2.07.31.09a1.82,1.82,0,0,1,0,.33.47.47,0,0,0,.11.51,1.38,1.38,0,0,1-1.06-.1h0l0,0h0a1.22,1.22,0,0,1-.17-.15,5,5,0,0,0-.53-.28c.15-.23.38-.08.56-.1a2,2,0,0,1,.56,0c.21-.41.28-.75-.24-1a.51.51,0,0,1,.5-.2.47.47,0,0,1,0-.15c-.13-.21-.41,0-.56-.17,0,0,0-.11,0-.15s.11-.19.19-.22c.36-.12.56-.42.85-.61h0a1.41,1.41,0,0,1-.31.08.38.38,0,0,1-.13,0c-.3-.13,0-.47-.28-.63a.67.67,0,0,0-.28-.06h0c0-.09,0-.17.06-.29a1.09,1.09,0,0,0-.58.31h0a.23.23,0,0,0-.11,0c-.34.26,0,.43.13.67a1.13,1.13,0,0,0-.23,1.41c-.15.1-.26.17-.33.23-.24.82.2,1.58.13,2.36-.11.06-.17.15-.26.17a.56.56,0,0,0-.36.45,1.09,1.09,0,0,0,.15.87h0a1.72,1.72,0,0,1,0,.26,2.93,2.93,0,0,0-.13.9c.07.09.2.18.18.33l-.33.21c.2.33-.08.65.2.93a2.74,2.74,0,0,1,.4.15h0a.42.42,0,0,0,.61.26c.14-.09.31-.15.45-.23a1.36,1.36,0,0,0,.1-.21.2.2,0,0,0-.18-.27c-.31.07-.1.52-.51.53a.86.86,0,0,1-.45-.08.29.29,0,0,1,0-.13c0-.45.09-.88.63-1,.09-.26,0-.47.17-.63a.82.82,0,0,1,.76.18c-.5.28-.5.3-.65.71a2.15,2.15,0,0,1,.37.11.52.52,0,0,1,.13.52.71.71,0,0,1-.3.25c-.16.42-.44.74-.59,1.13-.08.24.26.28.26.56-.15.17-.11.47-.37.69s.07.63-.06.91A4.22,4.22,0,0,0,59,48.15c-.3.23-.19.49-.08.77,0,.11-.07.24-.26.33a2.2,2.2,0,0,1-.72-.11s-.06-.06-.06-.11h0c.09-.48.59-.24.81-.44,0-.32,0-.59,0-.87s-.35-.09-.41-.27c.17-.15.27-.37.55-.43s.17-.18.16-.36c-.24-.23-.61-.43-.79-.76-.16,0-.35,0-.48.13l0,.08a8.19,8.19,0,0,1-.23,1.2,1.48,1.48,0,0,0,.12.93.6.6,0,0,0-.42,0c0,.05-.09.11-.07.15.13.35-.17.67,0,1-.43.28-.3.67-.24,1,0,.19-.21.25-.23.41.13.1.36.08.41.26-.15.21-.2.25-.54.34-.07.26-.13.52-.2.8.37,0,.76,0,1.15,0h.07a.36.36,0,0,0,.18.46l.49-.18a1.37,1.37,0,0,0,0-.19.41.41,0,0,0-.07-.17c-.18-.08-.33,0-.5.07h-.11a.67.67,0,0,1,.05-.19c-.07-.07-.18-.11-.11-.22s.19,0,.3,0h0c.33.13.59,0,.89-.1a.45.45,0,0,1-.24.67,1.94,1.94,0,0,1-.24.1,15,15,0,0,1-.39,2.21A2.34,2.34,0,0,1,57,56.35c.33.2.54.5.37.74a2,2,0,0,0-.26,1,16.84,16.84,0,0,1-.6,2.4c-.13.48-.37.58-1,.63,0,0-.11-.07-.15-.09-.13-.37.36-.3.45-.5-.32-.43-.34-.43-.86-.17a2.08,2.08,0,0,1-.41.11c-.05,0-.07.11-.11.15s.17.28.26.41c-.09.24,0,.52-.3.67a.41.41,0,0,0-.2.43c.07.46-.3.91-.15,1.38a.27.27,0,0,1-.09.26c-.3.28-.15.67-.28,1,.21.28-.18.55-.07.83l-.68-.16-.09.32c-2.91,12-6.45,22.76-17.66,23.71a15.85,15.85,0,0,1-12.48-4.3C19,81.66,17.35,73,17.48,65.63a13.57,13.57,0,0,0,.57-2.87c-.18-.24-.57-.32-.56-.68.1-.15.23-.32.32-.44,0-.28-.34-.27-.35-.47.28-.32.35-.73.68-1l-.29-.29c.14-.11.29-.2.29-.42s-.27-.11-.33-.27l.36-.22c0-.19-.24-.42,0-.61.13-.08.09-.22.1-.33a4.86,4.86,0,0,0,0-.54c0-.16-.26-.29,0-.5s0-.35,0-.52a1.48,1.48,0,0,0-.13-.51.7.7,0,0,1,.15-.83.19.19,0,0,0,0-.27l-.38.08-.4-.21h0l.05,0,0,0h0a1,1,0,0,0,.81-.83,4.25,4.25,0,0,0,.05-.8A9.43,9.43,0,0,0,18.36,52c0-.34-.29-.66-.08-1-.37-.24,0-.48,0-.72a1,1,0,0,0-.07-.15c-.13-.12-.46.12-.48-.24l.49-.36.07-.5c-.23-.19-.62-.26-.7-.58.07-.1.26-.11.25-.26-.48-.63-.48-.63-.35-.73s.3.33.6.27c.41-.38.48-.58.2-1-.06-.13-.48.15-.63-.11.08-.28.36-.11.52-.19a4.64,4.64,0,0,0,.41-2.42c-.12-.14-.2-.32-.45-.32s-.1.42-.46.44c0-.41-.08-.81-.1-1.22,0-.07.09-.15.1-.16.29-.16.45.08.73,0-.11-.2.2-.35.11-.57s.4-.38.15-.62-.55.3-.83.24c-.26-.22-.07-.4-.1-.56a.76.76,0,0,0-.2-.4c-.17-.16.15-.36-.1-.48s-.41.15-.57-.11c.08-.22.52-.29.45-.61-.37-.28-.42.15-.63.22s-.25-.15-.2-.26a5.41,5.41,0,0,1,.36-.61h0l0,0a1.32,1.32,0,0,1-.68.14l-.42-.71c.52,0,.53,0,1.1.57h0v0c.41.17.94,0,1.35.29-.17.26-.53.42-.52.76.3.07.53.3.83.21s.1-.37.16-.54.23-.3.19-.5-.27-.18-.29-.34.43-.26.25-.52c-.09-.06-.28.07-.31-.12s.34-.3.33-.61c-.38-.09-.12-.42-.26-.64-.22-.06-.31.12-.5.17l-.63-.17c0-.25.32-.26.31-.49s-.32,0-.36-.2c.29-.36.34-.39.71-.29.2,0,.37.16.58,0a.38.38,0,0,0-.31-.37c-.13,0-.33.2-.55,0-.23-.41.36-.8.18-1.24.14-.16.06-.42.33-.52l.1,0c.15.06.11.2.17.3s.24.2.44.07V34l.33-.23a1.76,1.76,0,0,0,0-.33.77.77,0,0,0-.07-.34c0-.1-.26-.09-.26-.23s.21-.34,0-.51c-.21,0-.34.31-.61.22v0a1.67,1.67,0,0,1,.08.3s-.06.08-.09.12-.13-.09-.12-.11a1.69,1.69,0,0,1,.13-.31v0h0a1.19,1.19,0,0,0,0-.33,2,2,0,0,1-.14-.86c0-.32.36-.5.39-.59.06-.4-.14-.59,0-.79a.21.21,0,0,1,.25.09c.09.13-.05.22-.08.32-.08.31-.07.32.44.58.23-.33-.1-.68,0-1,.1-.09.3,0,.32-.2s-.21-.24-.33-.36h-.07v0c-.15,0-.31.07-.44-.05a.27.27,0,0,1-.1-.31.24.24,0,0,1,.14-.1.28.28,0,0,1,.32.16,1,1,0,0,1,.08.3h0l0,0a.39.39,0,0,0,.34-.17c.09-.6-.25-1.21-.25-1.82a1.28,1.28,0,0,0-.22-.12.19.19,0,0,1-.17-.2c.14-.38.53-.7.55-1.14a3.62,3.62,0,0,1,.51-1.79c.09-.16,1.28-9.23,7.92-9.23,8.86,0,7.72,15.54,7.71,16,0,1,0,2,.06,3,0,.8.07,1.6.11,2.4a1.09,1.09,0,0,0,.13.6c.15.21-.23.33-.22.55a7.59,7.59,0,0,0,0,1.51,8.46,8.46,0,0,1,0,1.13c0,.14-.16.32-.13.5a10.62,10.62,0,0,1,0,1.87c0,.71,0,1.43,0,2.14a11.63,11.63,0,0,0,0,2.57c-.2.32.08.56.21.82,0,0,0,.11,0,.19s-.43,0-.41.44c0,.05.38.05.29.29l-.34.32c.08.11.16.2.24.3l-.35.29c.07.21.41.36.14.62a1.24,1.24,0,0,0,.31.64h-.06c-.25.11-.44.26-.32.53a.59.59,0,0,1,0,.59c-.09.15,0,.29.06.43a1.39,1.39,0,0,0,.64.65M17.56,63.73a.13.13,0,0,1,.09,0c.09,0,.11.07.09.13l-.19,0A.76.76,0,0,1,17.56,63.73Zm.51-6c-.21.18-.21.18-.46,0A.47.47,0,0,1,18.07,57.75Zm-.34-12.58.09.12-.12.06a.33.33,0,0,1,0-.13S17.71,45.18,17.73,45.17ZM18,38.72s-.09-.08-.09-.12.07-.06.1-.09.05,0,.06.07S18.05,38.69,18,38.72Zm0-1.19a.37.37,0,0,1,.39.35c0,.11-.08.21-.27.22A.41.41,0,0,1,17.92,37.53Zm18,2.93v0l.05,0ZM37.62,52a.23.23,0,0,1,.18,0c.13.07.13.09.13.36a.37.37,0,0,1-.36-.24C37.53,52.07,37.54,52,37.62,52Zm-1.16.21c.37,0,.47.26.8.62l-.91-.27C36.27,52.39,36.37,52.3,36.46,52.2Zm2.45-1.49-.07,0,.08,0Zm12.26-4.32,0,0h0Zm.12-3.11.07.06-.07.06s-.06,0-.06-.06S51.27,43.3,51.29,43.28Zm0,.43c.15,0,.19.14.14.26s-.1.05-.15.08-.22-.17-.15-.26A.21.21,0,0,1,51.29,43.71Zm-3.53-6,.06,0-.06,0Zm3.48-2.28s0,0,.06,0,0,.06,0,.06-.1,0-.11,0S51.21,35.4,51.24,35.4ZM50,34.25s.1.06.09.09,0,.08-.08.12-.07,0-.07-.06A.94.94,0,0,1,50,34.25Zm-1,0,.06.06,0,0-.09-.06Zm-1.28,1.06a.46.46,0,0,1,.07-.07l.62-.49c.47,0,.57.3.72.48a.36.36,0,0,0,.31,0s.07,0,.09,0a.52.52,0,0,1,.23-.07c.07,0,.26.08.46.12s.33,0,.5.06c0,.32,0,.32-.72.83-.5-.4-.5-.4-1-.45l-.17-.31c-.2-.08-.41-.11-.53.1a.67.67,0,0,1-.54.36A.36.36,0,0,1,47.67,35.28ZM49.6,17.9h0a2.64,2.64,0,0,1,.23-.35.2.2,0,0,1,.17,0s.09.09.08.13a1.61,1.61,0,0,1-.17.28h0s0,0,0,0l-.31,0S49.6,17.91,49.6,17.9Zm-.46,11.91c-.1,0-.18-.06-.16-.16s.08,0,.13-.07.2,0,.16.14A.16.16,0,0,1,49.14,29.81Zm0-10.53s0,0,0-.06,0-.06,0-.07.11,0,.09.09S49.21,19.27,49.19,19.28Zm-.11-1a.16.16,0,0,1,.16.16c-.05,0-.1.07-.15.06s-.19-.06-.15-.16A.16.16,0,0,1,49.08,18.31ZM47.91,30.84c-.1,0-.17-.09-.15-.19a.28.28,0,0,1,.26-.23.21.21,0,0,1,.2.25A.25.25,0,0,1,47.91,30.84Zm-.15-1a.38.38,0,0,1,.07-.56.35.35,0,0,1,.27-.07c.11,0,.16.09.14.22Zm.56-12.07c.28.19,0,.41.11.57s.22.29.35.47c-.15.21-.05.51-.5.42C48.33,18.76,47.77,18.28,48.32,17.77Zm-.52,1.72h0s0,0,0,0a.3.3,0,0,1-.12-.44s0,0,.08,0a.13.13,0,0,1,.08,0A.34.34,0,0,1,47.8,19.49Zm-.1-1.25c.06.1.15.21,0,.31a.36.36,0,0,1-.45,0C47.35,18.35,47.42,18.19,47.7,18.24ZM44.21,12l0,0,0,0Zm-.41,0,0,.05,0-.05Zm-9.6,4.25s-.07,0-.07,0l.09-.11.07.05C34.31,16.22,34.28,16.26,34.2,16.26Zm1.31.54c-.49-.3-.49-.3-.46-.59l.74.36ZM36.13,32a.83.83,0,0,1-.07-.13s0-.06.06-.05a.52.52,0,0,1,.13.06Zm-.07-1.29h0l0,.06Zm1.65,5.38c0-.26.24-.34.49-.19.08,0,.11.13.19.22l-.65.21h-.4c.11-.13.14-.13.37,0h0A1,1,0,0,1,37.71,36.09Zm.88,3.78-.08,0q-.13,0,0-.09a.15.15,0,0,1,.09,0S38.58,39.85,38.59,39.87Zm0-8.39s0,0,.05-.06l0,.07,0,.06S38.58,31.51,38.58,31.48Zm-.21,7.34a.55.55,0,0,1-.15-.08s.05-.06.07-.06l.17,0S38.39,38.82,38.37,38.82Zm-.77-.06v.05l-.06,0Zm0,1.38c.12,0,.19.1.18.2a.2.2,0,0,1-.27.18c-.16,0-.33.11-.57-.08Zm-.43-8.26s0,.06,0,.06-.07,0-.07-.07h-.06c.05.05.06,0,0,0s0,0,0,0h0C37.24,31.93,37.2,31.76,37.21,31.88Zm-.13,8s0,.06,0,.07S37,40,37,40s0-.06,0-.07S37.05,39.9,37.08,39.9Zm.28.94a2.64,2.64,0,0,0,.6-.15l.49.39h0l0,0h0l0,0h0a.4.4,0,0,1-.37,0,.48.48,0,0,0-.48,0c-.16.14,0,.28,0,.42s-.12.1-.16.09c-.36-.1-.88.07-1-.43.09-.19.34-.11.5-.19A1.22,1.22,0,0,1,37.36,40.84Zm1,.79-.08,0V41.6Zm-.51,6.06c-.21.11-.43-.14-.65,0s0,.29-.18.36-.1,0-.37-.65a.86.86,0,0,1,.85,0c.05,0,.18,0,.27,0v0l0,0,.17-.05s0,.05,0,.06-.13,0-.19,0h0C37.87,47.47,38,47.56,37.89,47.69Zm-.76-4.07.1,0,0,.06Zm.59,1.94.09,0s.06,0,.08,0-.06,0-.09,0Zm-1.14,2.92,0,.56c-.23,0-.23,0-.32-.58l.08,0ZM37,50.53l-.29-.19a.66.66,0,0,1-.2,0c-.06,0-.14,0-.16-.07a.16.16,0,0,1,.08-.22.33.33,0,0,1,.49.13c.13,0,.27-.06.38,0S37.18,50.46,37,50.53Zm1.23-1.71c-.23.14-.38-.13-.58,0s.23.29,0,.41-.35-.13-.43-.34a1.32,1.32,0,0,1,1.17-.52c.1-.24.38-.23.59-.31a.29.29,0,0,1,.37.18c0,.09,0,.13-.11.13l-.83,0A.53.53,0,0,1,38.22,48.82Zm.69-12.33a.2.2,0,0,1-.14,0S38.8,36.51,38.91,36.49Zm-.08-.83s0,0,.07-.06.05,0,.05.06,0,0-.06.05S38.83,35.67,38.83,35.66Zm0,4.87c.05,0,.12,0,.15.08s0,.1-.06.13-.14,0-.15-.07S38.78,40.58,38.8,40.53Zm.42,6.8c-.1.26-.14.34-.23.37h0l-.19,0a1.08,1.08,0,0,1,0-.59A.48.48,0,0,1,39.22,47.33ZM38.69,49a.23.23,0,0,1,0-.24.3.3,0,0,1,.24-.11c.24,0,.46.13.4.43A.51.51,0,0,1,38.69,49Zm.77-6.84a.2.2,0,0,1-.17,0s-.06-.1-.06-.15.06-.1.13-.09S39.52,42.08,39.46,42.16Zm0-.89s0,0,0,0l.09.13-.14.06a.13.13,0,0,0,0-.06.2.2,0,0,1-.11.07c-.13,0-.07.09-.08,0A7.19,7.19,0,0,1,39.07,40s.11-.05.16-.07c.26.14.1.38.21.6s.34,0,.36.18-.35.06-.36.23S39.46,41.16,39.48,41.27ZM39.12,45l0,0h0s0,0,0,0h0S39.12,45,39.12,45Zm0-1.87L39.08,43c0-.08.09-.07.13,0Zm.72-27.72s0,0,0,0,0,.06,0,0,0,0,0,0c-.22,0-.43.05-.55-.17.35-.28.39.1.58.17h0s0,0,0,0Zm0,22c-.06.09-.15.07-.25.05-.28,0-.28,0-.2-.3C39.57,37.2,39.81,37.17,39.87,37.37Zm-.41-.91v0l.14,0s-.06.07-.09.11S39.45,36.47,39.46,36.46Zm.4-.79c0,.28-.43.25-.46.5,0,0-.09,0-.09-.05,0-.27-.31-.53,0-.88l.29.14s0,0,0-.06a.21.21,0,0,1,.27-.07s.06.09.09.14a.21.21,0,0,1-.23.11A.33.33,0,0,1,39.86,35.67Zm-.25-1c0,.13-.13.17-.28.12-.19-.94-.19-.94.06-1,.13.16,0,.34,0,.51S39.59,34.58,39.61,34.72Zm-.33-2.82a.28.28,0,0,1-.11-.17l.36,0Zm.34-12.39a.4.4,0,0,1,0,.15c-.05,0-.13,0-.15-.08s0-.11,0-.14A.09.09,0,0,1,39.62,19.51Zm0,9.56a.25.25,0,0,1,.06.16c0,.07-.08.1-.16.08s-.1-.08-.1-.13S39.56,29,39.63,29.07Zm.08,2.43c0,.05,0,.11,0,.14l-.54,0a.31.31,0,0,1,.06-.16A.53.53,0,0,1,39.71,31.5Zm-.5,6.34s.09,0,.09,0a.85.85,0,0,1,0,.17s-.08.11-.13.12-.16-.08-.15-.09A.91.91,0,0,1,39.21,37.84Zm.11,1a1.52,1.52,0,0,1-.06.27,1.14,1.14,0,0,1-.14-.26.11.11,0,0,1,.05-.13C39.29,38.68,39.33,38.77,39.32,38.85Zm.76,12.94s0,0-.07-.06l.07-.07c.08,0,.15,0,.16.06S40.17,51.82,40.08,51.79Zm.2-1.46a.51.51,0,0,1-.47-.37.49.49,0,0,1,.36,0s.08,0,.13-.08.1.09.07.15l.18.09A.22.22,0,0,1,40.28,50.33ZM40.12,17c-.08,0-.11-.06-.07-.12s.05,0,.08,0l.07.13S40.14,17,40.12,17Zm.23,31.85c.11,0,.17.08.14.17s-.09.06-.14.09-.2-.07-.2-.15S40.26,48.83,40.35,48.84Zm0,1.7-.06-.07a1.15,1.15,0,0,1,.17-.06s0,0,.07.06Zm.12-2.22c.44.28.44.28.41.5C40.59,48.57,40.6,48.57,40.5,48.32ZM41,34.91c0,.1,0,.18-.15.18a.16.16,0,0,1-.17-.17c0-.05.06-.13.1-.14A.18.18,0,0,1,41,34.91Zm-.18-1.64s.06,0,.08,0,0,0,0,.06,0,0-.06,0S40.78,33.31,40.84,33.27Zm-.12,6.85a.16.16,0,0,1-.21.12.14.14,0,0,1-.06-.15s.1-.05.16-.07S40.73,40.09,40.72,40.12Zm-.23.75H40.4v-.05Zm0,6.52a.42.42,0,0,1,.18,0s0,.11-.08.14-.14,0-.15,0A.17.17,0,0,1,40.5,47.39Zm.24-4.2.07-.07,0,.08s0,.06,0,.07S40.73,43.27,40.74,43.19Zm.08,8.91c-.08-.05-.13-.12-.08-.2s.1-.08.15,0A.14.14,0,0,1,40.82,52.1Zm-.09-2.61s0-.09-.07-.14l.19,0c.08,0,.12,0,.11.1A.16.16,0,0,1,40.73,49.49Zm0-13a.17.17,0,0,1,.16-.19c.17,0,.2.12.24.22s-.05.17-.15.18A.22.22,0,0,1,40.73,36.51Zm.38,10.93s0,0,0-.06,0,0,.06-.05l.06.06ZM41.72,36a.17.17,0,0,1-.09.14.23.23,0,0,1-.18,0c-.16-.12-.14-.25-.05-.4C41.6,35.77,41.72,35.85,41.72,36Zm-.3-2.37v-.06l.08,0Zm.41-15c.09.23.21.41,0,.6C41.62,19,41.7,18.85,41.83,18.61Zm-.2,23.83c0,.06-.08.05-.1,0s0,0,0-.06h.06A0,0,0,0,1,41.63,42.44Zm-.3-10.91,0-.06h.07Zm0,10.27s.1.06.1.09,0,.11-.1.07-.06-.08-.08-.12Zm0,2.75a.52.52,0,0,1,.11-.1s.09.06.09.1-.06.08-.14.06S41.29,44.55,41.3,44.55Zm.33,7.14c-.05,0-.12,0-.14-.08s0-.09,0-.13.13,0,.14.06A.28.28,0,0,1,41.63,51.69Zm0-1.81c-.16,0-.17-.17-.19-.28s.07-.06.12-.09a.13.13,0,0,1,.07,0A.3.3,0,0,1,41.64,49.88Zm.11-1.4,0,0h.05Zm0-.53a.15.15,0,0,1,0-.14.49.49,0,0,1,.16-.06l0,.14C41.86,48,41.79,48,41.7,48Zm1.16-12c-.09,0-.2-.09-.15-.16a.24.24,0,0,1,.16-.07s.07.08.1.12S42.91,35.93,42.86,35.94Zm0,1v0l-.07,0Zm-.6-1.71s-.06,0-.08,0,0-.05,0-.07a3,3,0,0,1,.09-.52c0-.13.17-.17.5-.17C42.66,34.8,42.27,34.94,42.27,35.25Zm0,1.24a.09.09,0,0,1-.06-.06.25.25,0,0,1,.25-.24s.1.09.09.12A.22.22,0,0,1,42.28,36.49Zm.22,9s.11,0,.13.06,0,.15-.1.18-.06,0-.08,0S42.41,45.52,42.5,45.47ZM42.32,45a.2.2,0,0,1-.23.11C42,45.1,42,45,42,45a.25.25,0,0,1,.17-.08S42.28,45,42.32,45Zm-.12-4.84c-.45-.23-.45-.25-.07-.52C42.43,39.8,42.2,40,42.2,40.17ZM42,46.4h0c0,.06,0,.13,0,.11s0-.1,0-.11,0,0,0,0,0,0,0,0l0-.11s.09.06.08.08-.06,0-.12,0Zm0,2.68a.6.6,0,0,1,.08-.21c.15,0,.17.09.2.17a.12.12,0,0,1-.11.18A.12.12,0,0,1,42.07,49.08Zm.3,1.39s-.07,0-.1-.08l.07,0c.07,0,.12,0,.15,0S42.42,50.46,42.37,50.47Zm.08-.58c-.24.08-.29-.06-.34-.2.16-.13.29-.12.4.05S42.53,49.86,42.45,49.89Zm.33-2.58c-.1.12-.21.11-.49-.07a.63.63,0,0,1,.3-.42C42.88,47.06,42.91,47.14,42.78,47.31Zm-.15-4.93c-.17-.15-.15-.32,0-.52.31,0,.47.13.41.33S42.83,42.42,42.63,42.38Zm.48,10.31a.94.94,0,0,1-.06-.15l.08,0a.88.88,0,0,1,0,.15S43.14,52.67,43.11,52.69Zm.32-2.64c-.19,0-.42,0-.45-.21a.52.52,0,0,1,.56,0C43.56,49.93,43.53,50,43.43,50.05ZM43,49.3h.06l0,.05Zm.31-2.95.07,0s0,.05,0,.07,0,.07-.05.07S43.3,46.42,43.35,46.35Zm.17-.51s-.08-.12-.06-.13a.3.3,0,0,1,.35,0A.22.22,0,0,1,43.52,45.84Zm.53-7.76a.23.23,0,0,1-.18,0c-.06-.07,0-.16.08-.19a.49.49,0,0,1,.27,0c.08,0,.09.07,0,.17A.92.92,0,0,1,44.05,38.08Zm.13,4.64s0,0,0,.07-.05,0-.06,0,0,0,0-.06S44.14,42.66,44.18,42.72Zm-.13,1.92s0,0-.07.06-.06,0-.06-.06,0,0,.07-.06S44.05,44.62,44.05,44.64Zm.17-7.29-.07-.14.07-.05s.05.09.07.14S44.24,37.33,44.22,37.35Zm-.47-1.29c0-.24.2-.29.4-.35C44.29,36.1,44.26,36.13,43.75,36.06Zm0,11.23c-.08-.18,0-.26.22-.31a.55.55,0,0,1,.27.35A.56.56,0,0,1,43.8,47.29Zm.3,2.39,0,0h.05Zm.41-1.28c-.08.08-.25.08-.26,0a.15.15,0,0,1,.06-.14.91.91,0,0,1,.17-.09A.14.14,0,0,1,44.51,48.4Zm.19-1.22-.07,0,.06-.09s.06,0,.06.06S44.72,47.16,44.7,47.18Zm0-9a.13.13,0,0,1-.07,0c0-.07,0-.11.08-.13s.1.07.11.11S44.79,38.21,44.72,38.19Zm-.08-7.7h.06l0,.05Zm.41,6.57s-.13,0-.17-.08,0-.11.08-.14a.13.13,0,0,1,.17.06Zm.13,10.58h.07v0Zm3,3.52,0-.06.07,0,.08,0Zm-.11-4.69c.08.22-.07.33-.29.4a.51.51,0,0,1-.52-.46,2.07,2.07,0,0,0,.44.06C47.81,46.46,47.93,46.36,48.06,46.47Zm-.29-.69s0-.05,0-.05l.07,0s0,0,0,0S47.79,45.79,47.77,45.78ZM47.69,48c-.12,0-.16-.09-.13-.18a.16.16,0,0,1,.15-.08c.12,0,.18.08.14.18S47.74,47.93,47.69,48Zm.07.72a.24.24,0,0,1-.3.17s-.07,0-.07-.07.15-.22.27-.21S47.76,48.64,47.76,48.67Zm.45-6.53a.11.11,0,0,1,.15.09c0,.09,0,.17,0,.26a2.53,2.53,0,0,0-.13-.22C48.12,42.21,48.12,42.16,48.21,42.14Zm0-.52a.62.62,0,0,1,.12-.09l.09.14a.84.84,0,0,1-.06.14s0,0-.07,0A.16.16,0,0,1,48.17,41.62Zm0,3h.05l0,0Zm.27,1.81,0,0,.06,0Zm.22,1.06c0-.05-.07-.1-.06-.14a.18.18,0,0,1,.21-.13s.11.05.11.08S48.74,47.55,48.65,47.53Zm.76-.55c-.07-.07-.1-.2,0-.2a.86.86,0,0,0,.59-.27c.21-.16.33-.08.38.27A1.5,1.5,0,0,1,49.41,47Zm.2,2.13-.07.06s-.06,0-.06-.06,0,0,.06-.06Zm-.27-6.25v0l0,0Zm1,5.37a.46.46,0,0,1-.16-.07.57.57,0,0,0,.11-.11.53.53,0,0,1,.1.12S50.38,48.24,50.37,48.23Zm.14-3.95a.41.41,0,0,1-.41-.19,2.52,2.52,0,0,1,.37-.08c.1,0,.22,0,.23.12S50.63,44.28,50.51,44.28Zm-.35-4.07,0,.07h-.06Zm.2,2.92h0l0,0-.19-.38c.07-.2.3-.23.5-.37a.68.68,0,0,0,.2.63,1.12,1.12,0,0,1-.24.56c-.31,0-.06-.35-.27-.44h0a1.46,1.46,0,0,1-.16.19.16.16,0,0,1-.25,0,.13.13,0,0,1,0-.07c0-.11.1-.15.2-.15ZM50,37.45a.21.21,0,0,1,.15.09s0,.1,0,.15-.21,0-.22-.13S49.93,37.45,50,37.45Zm-.21,3.95a.4.4,0,0,0,.27.09.17.17,0,0,1-.05.22c-.09.07-.27,0-.3-.14S49.71,41.45,49.76,41.4Zm.37,3.91c.1.13,0,.26,0,.39a.21.21,0,0,1-.25,0,1.46,1.46,0,0,1-.17-.33C49.88,45.24,50,45.23,50.13,45.31Zm-.82-6.42s-.06,0-.07-.06,0-.22.15-.29a.38.38,0,0,1,.1,0c0,.05.09.1.08.15S49.46,38.86,49.31,38.89Zm-.18-1.22a.39.39,0,0,1,.38.31c0,.19-.28.23-.37.38,0,0,0,0,0,0l0,0s0,0,0,0l0,0C49.14,38.08,49.13,37.87,49.13,37.67Zm0,3.93,0,0,0,0ZM49.82,50c0,.35-.3.17-.44.23s-.31,0-.3-.31ZM49,43.6h0a.17.17,0,0,1,0,.23c-.22,0-.42,0-.46-.23.16-.14.32,0,.48,0Zm-.12-2.55,0,.05h-.06Zm-.13-1.37c-.16.26-.52.34-.75.59a.73.73,0,0,1-.26-.55C48.46,39.51,48.46,39.51,48.76,39.68Zm-.89,3.1c.15,0,.27,0,.29.14a.17.17,0,0,1-.13.23c-.14.05-.36-.08-.36-.22S47.76,42.79,47.87,42.78Zm-.2,1.07a.38.38,0,0,1,.52,0c.06.32-.15.4-.46.4C47.57,44.1,47.54,44,47.67,43.85Zm-.09,1.31c.05,0,.11,0,.16.07a.65.65,0,0,1-.16.09c-.06,0-.11,0-.17-.08S47.52,45.16,47.58,45.16Zm-2.11-9.69a.4.4,0,0,1-.48.23l-.23-.36C44.93,35.17,45,35.19,45.47,35.47Zm-.38-1.38-.15.11c-.06,0-.16,0-.17-.07S44.86,34,45,34,45,34.06,45.09,34.09Zm-.24-.51-.08,0a.11.11,0,0,1,.17,0Zm-.36-16.7h0a.1.1,0,0,1,0,0,.94.94,0,0,1,.14-.16.53.53,0,0,1,.09.63C44.47,17.13,44.39,17,44.49,16.88Zm.12,1.78c0,.05,0,.12-.08.15a.15.15,0,0,1-.22-.07.15.15,0,0,1,.07-.15A.17.17,0,0,1,44.61,18.66Zm-.46-1.19c.08,0,.12.12.18.18l-.15.12A.63.63,0,0,1,44,17.6C44,17.53,44.09,17.42,44.15,17.47Zm-.11,2a.22.22,0,0,1,.26.07s-.08.09-.13.1-.19,0-.2-.11S44,19.44,44,19.43Zm-.13,13.79a.21.21,0,0,1,0,.07l-.07,0s0-.05,0-.07S43.89,33.23,43.91,33.22ZM43.73,18.9l.1.1-.12.09a.84.84,0,0,1-.06-.14S43.72,18.89,43.73,18.9Zm.07,9.84c.09.12.08.22-.11.25l-.26,0h0s0,.06,0,.06-.06,0,0-.05,0,0,0,0,0,0,0,0h0s0-.05,0,0S43.56,28.7,43.8,28.74Zm-.35-11.06s0,0,0-.05l0,.06-.05,0S43.45,17.7,43.45,17.68Zm.12-.63c-.37-.06-.37-.06-.46-.35C43.38,16.63,43.43,16.83,43.57,17.05ZM43.17,16h0s0,0,0,0,0,0,0,0l0,0s0,0,0,0,0,0,0,0-.21.06-.29-.06C43,15.87,43.09,16,43.17,16Zm-.28-1.71c.1,0,.21,0,.21.1s-.1.09-.16.09-.11-.05-.17-.08ZM42.76,29c0,.28-.32.16-.46.27a.74.74,0,0,0-.28.49c0,.26.35.24.32.46a1.13,1.13,0,0,1-.15,0c-.17,0-.38,0-.4-.21a1,1,0,0,1,.08-.61,5.65,5.65,0,0,0,.27-.5C42.42,28.82,42.61,28.78,42.76,29Zm-.54-10.85h.05l0,0Zm.46,1.48a.19.19,0,0,1-.21.13c-.1,0-.18-.09-.15-.19s.11-.08.16-.08S42.68,19.47,42.68,19.59Zm-.43-4.94,0,0,.07,0h-.05s0,0,0,0l0,0s0,0,0,0-.16-.08-.13-.18h0l0,0,.05,0s0,0,0,0,.14.09.13.18Zm-.11-1.19c.07,0,.11.06.06.12s-.07.05-.11.08-.07-.09-.07-.14S42.09,13.48,42.14,13.46Zm-.09,1.73h0c.17-.09.34-.16.49,0-.29.14-.3.14-.49,0h0c-.07,0-.15,0-.13,0S42.05,15.1,42.05,15.19Zm-.27,1.49a.38.38,0,0,1,.4.22c0,.06,0,.17-.09.22a.19.19,0,0,1-.26,0A.3.3,0,0,1,41.78,16.68Zm-.19-2c0,.08-.07.09-.11,0a.06.06,0,0,1,0-.07s0,0,.07,0S41.6,14.62,41.59,14.64Zm-.05-.75s0,0,0,.08-.09.13-.19.14-.08-.07,0-.13S41.41,13.81,41.54,13.89Zm-.3,1.32c.35.07.17.42.47.52l-.4.42v0s0,0,0,0l0,0s0,0,0,0-.07,0,0,0,0,0,0,0c0-.29-.25-.57-.16-.89Zm-.09,1.38.09.14s-.05.05-.07.05-.12-.06-.08-.13S41.13,16.61,41.15,16.59Zm-.19,1c-.05,0-.11.08-.15.07a.12.12,0,0,1-.1-.18.1.1,0,0,1,.16,0A.67.67,0,0,1,41,17.61Zm-.28-2.95c-.09,0-.09-.08,0-.11s0,0,.07.06S40.69,14.66,40.68,14.66Zm.09-3.88a.29.29,0,0,1,0,.39.21.21,0,0,1-.15.05.16.16,0,0,1-.07-.14A2.86,2.86,0,0,1,40.77,10.78Zm-.14,19.64.06,0h0l0,0-.06,0s0,0,0,0,0,0,.05.05l.06,0a.11.11,0,0,1,.05.16.19.19,0,0,1-.17.06C40.52,30.64,40.52,30.53,40.63,30.42Zm-.09-1.18c0,.05,0,.1,0,.15a.19.19,0,0,1-.21-.12.18.18,0,0,1,.1-.09A.23.23,0,0,1,40.54,29.24Zm-.17-10.39s0-.05,0-.08.06,0,.07,0,0,0,0,.06S40.43,18.92,40.37,18.85Zm0-3.83.07.13a.34.34,0,0,1-.17,0c-.08,0-.11-.07-.06-.12A.76.76,0,0,1,40.39,15Zm0,32.66c.1,0,.2,0,.17.16s-.1.16-.2.11-.09-.13-.12-.2A.3.3,0,0,1,40.38,47.68ZM40.2,14.24v-.05l0,0-.37.41c-.22,0-.24-.15-.28-.29A.49.49,0,0,1,40.2,14.24Zm-.3-3.16c0-.08.1-.07.13,0a.13.13,0,0,1-.07.19C39.88,11.22,39.85,11.16,39.9,11.08Zm.12.81a.24.24,0,0,1-.1.22.18.18,0,0,1-.23-.1,2,2,0,0,1-.12-.28C39.87,11.65,40,11.74,40,11.89Zm-.41,1.38.07.14-.08.05c-.08,0-.11-.07-.07-.13S39.58,13.29,39.61,13.27Zm-.18.66c-.07,0-.11,0-.09-.09s0,0,.07-.05l.05.07A.49.49,0,0,1,39.43,13.93Zm-.11-3.42s.06.09.09.13,0,.17-.14.19-.13,0-.14-.07S39.25,10.48,39.32,10.51Zm-.18.74a1.27,1.27,0,0,1,.11.13s0,0,0,.06-.13,0-.13-.06S39.11,11.3,39.14,11.25Zm.07,18.51,0,0,0,0Zm.27.58c.1.28,0,.43-.25.58a1.35,1.35,0,0,1-.14-.22.61.61,0,0,1,0-.22A.41.41,0,0,1,39.48,30.34Zm-.19,16.11c.05,0,.08.09.12.13s-.1.15-.2.13a.46.46,0,0,1-.24-.12.17.17,0,0,1,0-.15A.66.66,0,0,1,39.29,46.45ZM39,29.78c-.13.45-.13.45-.93.85-.11,0-.16-.14-.09-.19C38.29,30.22,38.62,30,39,29.78ZM38.36,14.6c.06,0,.15,0,.16.08a.13.13,0,0,1-.13.18.17.17,0,0,1-.14-.08C38.2,14.69,38.25,14.62,38.36,14.6Zm.35-2.82,0,.06-.07,0Zm-.05,0a.24.24,0,0,1,.11.06l0,0-.12.06a.8.8,0,0,1,0-.15Zm.1.85c.14.17.16.3,0,.42s-.3,0-.31-.16S38.61,12.72,38.76,12.67Zm.05,1.24c.06.06.08.16-.06.27-.45-.11-.61-.73-1.2-.51-.06-.19,0-.26.07-.33A1.57,1.57,0,0,1,38.81,13.91Zm-1.58-1.68c0-.1.12-.13.22-.11s.06.09.09.13-.06.12-.1.13S37.23,12.32,37.23,12.23Zm.09.8-.07.05a.59.59,0,0,1-.06-.14s0,0,.07,0A.84.84,0,0,1,37.32,13Zm.41-2.79c.12.23-.21.36-.19.57a2.68,2.68,0,0,1,0,.49.69.69,0,0,1-.29-.69,1.59,1.59,0,0,0-.18-.56A.83.83,0,0,1,37.73,10.24Zm-.2,20.36-.26.14c-.18.07-.36.21-.56,0a.13.13,0,0,1,0-.16C36.92,30.39,37.14,30.38,37.53,30.6Zm-.91-20.18c.08,0,.13.1.08.18a.16.16,0,0,1-.15,0,.13.13,0,0,1,0-.13S36.57,10.44,36.62,10.42Zm-.45-.59a.19.19,0,0,1,.22.14.17.17,0,0,1-.06.15.19.19,0,0,1-.26-.17S36.14,9.87,36.17,9.83Zm.3,1.34s-.11.06-.15.05-.07-.07-.11-.11.08-.09.12-.09S36.49,11.09,36.47,11.17Zm-.64-2a.74.74,0,0,1,.17.18c-.07,0-.11.09-.16.09s-.23-.1-.17-.22A.1.1,0,0,1,35.83,9.16Zm.4,6.22a.51.51,0,0,1,.07-.15.89.89,0,0,1,.43.49.46.46,0,0,1-.54,0h0c0,.19-.19.27-.36.33a.16.16,0,0,1-.23-.09.15.15,0,0,1,.13-.19l.46,0v0h0a.89.89,0,0,1,0-.23,3.48,3.48,0,0,1-1.85-.34c0-.1.16-.14.21-.07S35.91,15.19,36.23,15.38ZM34.82,7.8c0,.13-.1.25-.27.23s-.18-.08-.15-.18.08-.23.24-.21S34.77,7.75,34.82,7.8Zm-.24-.68c-.28,0-.32-.18-.34-.45C34.76,6.82,34.76,6.82,34.58,7.12Zm-.42,7.42.07.06s0,.06-.08.06,0,0-.07-.06Zm-.11,2.85s0,.05.05.08a.11.11,0,0,1-.17.05s0,0-.06-.07ZM33.31,5.78l0,.06,0,0Zm0,10.88c.18,0,.34.05.33.25a.62.62,0,0,1-.55.07C33,16.82,33,16.67,33.28,16.66ZM31.81,5.42c-.09,0-.09-.08,0-.11s0,0,.06.06Zm-.15-1.3s.05,0,.07,0,0,.1-.05.12l-.13-.08Zm.61.44a3.11,3.11,0,0,1,.41.11.73.73,0,0,1,0,.29,4.43,4.43,0,0,1-1.78-.38A8.7,8.7,0,0,1,32.27,4.56ZM30.69,3.31h0s0-.06,0-.09l.38-.09h0c-.11.19.19.29.14.46s-.28.09-.34.21h0a.43.43,0,0,1-.16-.44h0ZM29,3.36a.7.7,0,0,1,.26.47.86.86,0,0,1-.67.08C28.58,3.61,28.78,3.48,29,3.36Zm-.77,1.3,0,.07,0-.07ZM28.09,3.3l.08,0-.08,0Zm-1.27.15c.1,0,.18.06.17.18s-.07.22-.24.21a.16.16,0,0,1-.16-.18C26.58,3.54,26.64,3.43,26.82,3.45Zm-.63,1.46a.52.52,0,0,0,.1-.11h0s0,0,0,0h0a.39.39,0,0,1,0,.15s-.08.06-.12.06S26.13,5,26.19,4.91Zm-1.38-1c.16.13.13.24-.07.31a.24.24,0,0,1-.17,0C24.49,4,24.67,4,24.81,3.89Zm-1.09,12s-.06-.07-.09-.12.08-.08.12-.08.16.07.12.16S23.76,16,23.72,15.94Zm0-11.5s0,0,.05-.06a.1.1,0,0,1,0,.07s0,0-.05.06S23.71,4.46,23.71,4.44Zm.16-.88a.24.24,0,0,1,.26.16h0c-.14.06-.33-.05-.52,0A.26.26,0,0,1,23.87,3.56Zm-3.56,7s-.06-.09,0-.13.09-.05.14-.08.1.08.1.11S20.42,10.64,20.31,10.6ZM20.48,6A.61.61,0,0,1,20.65,6s.06,0,.06.06-.08.09-.16.06S20.51,6,20.48,6Zm.13,5.39-.06,0,.06,0Zm.14-1.61a.1.1,0,0,1-.06-.07.94.94,0,0,1,.06-.15l.16.05C20.93,9.7,20.81,9.82,20.75,9.8Zm.82-4.29-.15,0v0h-.06l-.13.09a.18.18,0,0,1-.1,0c-.05-.07,0-.11.08-.1h.15l0,0h0c0-.07,0-.13.1-.15l.08,0S21.59,5.5,21.57,5.51Zm1,10.14,0-.06h.07Zm.13-.87s-.08,0-.12-.08l.08,0a.12.12,0,0,1,.17,0S22.76,14.78,22.72,14.78ZM22.34,4.15h0l.09.15,0,0,.22.18.28,0s.07,0,.09.09c-.08.24-.42.37-.38.64a.43.43,0,0,1-.43-.08c-.12-.31.47-.26.38-.55-.18-.13-.31,0-.46.06s-.26,0-.24-.18A.81.81,0,0,1,22.34,4.15Zm-.4,11s.06.09.09.14-.05.06-.07.06-.19-.07-.17-.16S21.88,15.08,21.94,15.13ZM19.73,5c.11-.26.11-.27.49-.2h0c0-.13-.07-.27-.1-.38s.32-.13.39-.28,0-.13-.07-.14-.34,0-.51-.05a.2.2,0,0,1-.18-.2c.3-.08.53-.31.88-.31v0h.05a1.54,1.54,0,0,1,.49-.53c.32.08.57.19.56.56a7.28,7.28,0,0,1-1,0s0,0,0,0h0c0,.1.05.2.07.27.17.19.4.12.58.13,0,.09.07.16,0,.19a5.41,5.41,0,0,1-.55.62c-.14.13-.41,0-.55.15h0C20,4.77,19.91,5,19.73,5Zm0,3.72c.16,0,.2-.24.41-.17,0,.32-.22.17-.39.16s0,0,0,0l0,.11s-.07,0-.08,0,0-.07,0-.09Zm-.31,3.76,0,0,0-.06ZM19,11.6a.09.09,0,0,1,.15.05c0,.09,0,.17-.12.17s-.12-.06-.12-.09A.19.19,0,0,1,19,11.6Zm-1,16.25c-.08,0-.15-.09-.22-.14s.07-.1.13-.12a.16.16,0,0,1,.22.09C18.2,27.77,18.16,27.86,18.06,27.85Zm.1-16.25c.11,0,.18.06.17.17a.18.18,0,0,1-.22.11.14.14,0,0,1-.09-.2A.2.2,0,0,1,18.16,11.6ZM18,14.05s0,0,.06.07,0,.05-.07.06-.14,0-.14-.06S17.94,14,18,14.05Zm-.12,6.36v-.05l0,.05h0l-.08,0Zm-.14,4s.07,0,.07,0,0,.1-.13.06,0,0,0-.06S17.73,24.45,17.76,24.45Zm-.87,3.12.07,0v.05Zm.17-3.49S17,24,16.94,24s0-.05.07-.05.31-.08.42.06A.42.42,0,0,1,17.06,24.08Zm0-15.93s.09,0,.14-.06l0,.15s-.1.08-.13.08S17,8.22,17.05,8.15Zm0,13.08c.07,0,.1,0,.11.06s0,0,0,0,0,0,0,0h0s0,0,0,0S16.9,21.29,17,21.23Zm-.2,1c.06,0,.13.06.15.09s0,.16-.13.18-.21,0-.19-.1S16.77,22.27,16.83,22.21Zm-.06,12.67c.05,0,.06.09.09.14l-.07.07-.21-.18C16.65,34.9,16.72,34.86,16.77,34.88Zm-.16,1.23h.06s0,.07,0,.1l-.05-.05S16.6,36.13,16.61,36.11ZM16.31,32v0h0ZM.85,62l0-.06,0,.07Zm.29-7.11A.76.76,0,0,1,1,54.8s0,0,.06-.06.13,0,.14.06S1.15,54.86,1.14,54.86ZM4.83,21a.17.17,0,0,1,.22.07.2.2,0,0,1-.23.05C4.74,21.12,4.74,21.07,4.83,21Zm-.09,2s.06,0,.08,0,0,.06,0,.06l-.09,0S4.73,23,4.74,23Zm-.27-.37,0,.06H4.43ZM4,25s0,0,.06.06,0,.05-.06.06-.14,0-.14-.06S3.91,25,4,25Zm-.41,2.65s0,.05,0,.07-.07.1-.15.07,0,0-.07-.06ZM2.3,36.32s0,0,.06,0,0,0-.06,0,0,0-.06,0S2.28,36.32,2.3,36.32Zm.18,4.4c.18.12.21.27,0,.48-.2-.14-.54,0-.82-.31ZM1.93,51.91l0,.05,0-.05Zm0,8.66s-.06,0,0-.06,0,0,.06,0l.06,0Zm.16-1.63,0,0s0,0,.06,0,0,0,.06,0Zm.18,4.78H2.17s0,0,0-.06.08-.08.11,0S2.25,63.69,2.25,63.72Zm.1-8.57,0-.06,0,.06Zm.14,3.94s-.05,0-.05-.06,0,0,.06-.05.06,0,.06.06S2.51,59.07,2.49,59.09Zm0-14.84s-.06,0,0-.07,0-.11.1-.06a.1.1,0,0,1,0,.09Zm.11-1.07A.22.22,0,0,1,2.34,43a.16.16,0,0,1,.08-.12.21.21,0,0,1,.29.15S2.67,43.16,2.63,43.18Zm.13-3a.23.23,0,0,1-.27,0L2.17,40a.4.4,0,0,1,.49-.15C2.78,39.94,2.84,40.13,2.76,40.18Zm-.23-6.91A.34.34,0,0,1,3,33.06c.26.08.42.26.35.52-.23.07-.31-.07-.4-.18S2.59,33.48,2.53,33.27Zm.6,4,0-.06,0,.06Zm.29-.74a.58.58,0,0,1-.52-.2.12.12,0,0,1,0-.14.21.21,0,0,1,.18-.06,4.65,4.65,0,0,1,.52.22C3.5,36.43,3.47,36.5,3.42,36.5Zm0-6,0-.07,0,.07ZM3.74,29c-.26.06-.37-.3-.61-.07-.13-.28.17-.42,0-.68l.68.14a.7.7,0,0,1,0,.55C3.71,29,3.86,29,3.74,29ZM4,38.71c-.07,0-.14,0-.14-.06s.07-.09.14-.06,0,0,.07.06Zm0-5.62c.06,0,.13-.07.16-.05s.06.08.08.13a.09.09,0,0,1-.15,0S4,33.13,4,33.09Zm.21,26c-.08,0-.1-.07,0-.12h.08s0,.05,0,.07S4.23,59.07,4.21,59.06Zm.69-35c.14.12.15.25,0,.42a1,1,0,0,1-.61-.19A.9.9,0,0,1,4.9,24.1ZM4.55,39.7l0-.05c0-.07,0-.09.09,0s0,0,0,.06S4.57,39.69,4.55,39.7Zm0-11,0-.06,0,.06Zm.28,1.11.06.14c0,.09-.07.11-.14,0s-.06-.09-.09-.13Zm.06,9.07a1.15,1.15,0,0,1-.17-.06.16.16,0,0,1,.07-.07.11.11,0,0,1,.16.07Zm.14-11H5a.09.09,0,0,1,0-.06c0-.07.07-.08.1,0S5.07,27.86,5.07,27.88Zm.26,6.86-.09,0s0-.06,0-.06.06,0,.09,0S5.34,34.74,5.33,34.74Zm0-12.93a.09.09,0,0,1-.06-.06.89.89,0,0,1,0-.14h.07C5.4,21.66,5.36,21.82,5.28,21.81Zm.37,2.41c-.22-.06-.18-.18-.08-.31.15,0,.33.07.24.26C5.8,24.2,5.7,24.23,5.65,24.22Zm.29-1.35H5.86c-.08.07-.12.21-.28.12s-.06-.05,0-.07.19-.09.31-.07h.1ZM5.67,20.7c-.35-.26-.24-.53-.43-.74.4-.1.69-.16,1,.08C6.17,20.38,5.56,20.25,5.67,20.7Zm.73-2.95s.12,0,.13.06,0,.17-.1.23-.06-.16-.08-.23S6.4,17.74,6.4,17.75Zm0,6.72-.05,0,.06,0Zm0-4.12,0-.05,0,.05Zm0-1.19s-.06,0-.06-.06,0,0,.07-.06l.06.05ZM7,17.83s0-.09-.08-.14l.17-.06.07.16A.1.1,0,0,1,7,17.83Zm.26,20.23s-.06,0-.07,0,0-.09.09-.07,0,0,.05.05S7.28,38.06,7.25,38.06Zm.31-17.5a.48.48,0,0,1,0-.14c0-.08.07-.1.14-.05s0,.09.08.13Zm0-1.53c-.14,0-.14-.09-.14-.17s0-.23.2-.25.19.06.18.17A.26.26,0,0,1,7.59,19Zm.35-1.35c-.05,0-.14.05-.18,0s-.15-.18,0-.32l.19.2A.1.1,0,0,1,7.94,17.68Zm1.64-3.22.17.07a1.54,1.54,0,0,1-.17.19c-.05,0-.11,0-.13-.08S9.45,14.48,9.58,14.46Zm-.4-.64s.06.09.1.13-.09.09-.13.09S9,14,9,13.87,9.11,13.78,9.18,13.82Zm-.41.48.14.15c-.22,0-.26,0-.55-.26Zm-1.35-.62v0l0,0Zm.74,5.84c-.17-.12-.14-.23,0-.34C8.34,19.3,8.33,19.41,8.16,19.52Zm.08-2.38a.13.13,0,0,1-.05-.06s.05,0,.07,0l.08,0C8.37,17.12,8.32,17.16,8.24,17.14Zm.16.73c0-.05.07-.09.12-.11a.1.1,0,0,1,.15.08l0,.17s0,.13-.09.14a.15.15,0,0,1-.2-.11A.25.25,0,0,1,8.4,17.87Zm.25,17.25s0,.05-.06.05-.07,0-.06-.05S8.61,35.05,8.65,35.12Zm0,.74a.58.58,0,0,1-.18-.2l.13-.1a.2.2,0,0,1,.21.15A.12.12,0,0,1,8.61,35.86ZM8.9,17.42c-.11-.1-.1-.29,0-.29a.38.38,0,0,1,.25.08c.06.06.06.16.09.23a.6.6,0,0,1-.18.07A.35.35,0,0,1,8.9,17.42Zm.23,6.45,0,.05H9.11Zm0,10.48s0-.05,0-.08.06,0,.06,0,0,.06,0,.08S9.17,34.44,9.14,34.35ZM9.2,16.57s-.06,0-.09-.05l.29-.39c-.32-.38-.72-.21-1.12-.1a7.88,7.88,0,0,1-1-.54l.18-.5c.63,0,.63,0,.9.57l.36-.15a1.32,1.32,0,0,0,1.1.3.4.4,0,0,1,.13.32C9.51,16.42,9.35,16.55,9.2,16.57Zm.88,1.9a.11.11,0,0,1-.06-.13.15.15,0,0,1,.21-.08s0,.09.07.13A.16.16,0,0,1,10.08,18.47Zm.43-4.13.07-.05.07.06a.64.64,0,0,1-.08.14A.67.67,0,0,1,10.51,14.34Zm.1,1.93.06,0-.07,0Zm.08,2.88a.15.15,0,0,1,0-.07s0,0,.05-.06l0,.07Zm.17-1.91s-.06,0-.06,0,.08-.07.11,0Zm.3-3.85h0a.61.61,0,0,1,.28.62L11,13.75C10.91,13.57,11,13.47,11.16,13.39ZM11,16.67v-.05l.06,0Zm.33,4.5s-.07,0-.06-.06.07-.1.15-.08.05,0,.08.06A.13.13,0,0,1,11.35,21.17Zm.81-2.24s-.05,0-.05-.07,0-.15.16-.16.12.07.11.09A.21.21,0,0,1,12.16,18.93Zm3-9.35c.07-.05.13,0,.13.05a.28.28,0,0,1,0,.15l-.16-.06C15.15,9.67,15.15,9.61,15.19,9.58Zm-2.32-.14s0,0,0,0h0s.06,0,0,0h0l.1.22c-.08,0-.12,0-.12,0a1.1,1.1,0,0,0,0-.18h0l0,0s0,0,0,0ZM12.54,9s0,0,0,0,0-.09.11-.06a.08.08,0,0,1,0,.07S12.57,9,12.54,9Zm.07,1.92a.29.29,0,0,1,.18-.28s.14,0,.14.07S12.85,11,12.61,10.93Zm.74.49a.27.27,0,0,1-.42-.06c0-.24.27-.27.37-.44v0s0,0,0,0a.05.05,0,0,0,0,0v0h0C13.29,11.09,13.44,11.25,13.35,11.42Zm.22-2.7,0,0,0,.05Zm.16,29.18q-.2-.13,0-.27C13.84,37.72,13.87,37.81,13.73,37.9ZM14,46.82l0-.06H14ZM14.07,10,14,9.94,14,9.88l.07.06Zm.11,6.48s0,0,.05,0,0,0,0,.06,0,.08-.1,0S14.16,16.5,14.18,16.48Zm.11,21c-.11-.13,0-.25,0-.37C14.39,37.21,14.45,37.35,14.29,37.45Zm.16-27.25c.23.25.35.43.06.64C14.2,10.46,14.2,10.46,14.45,10.2Zm.31,52.09c-.1-.06-.25-.11-.21-.25a.09.09,0,0,1,.07-.06c.15,0,.24.08.23.21S14.76,62.29,14.76,62.29Zm-.21-45.06.23-.12h.07s0,.11,0,.14S14.71,17.34,14.55,17.23Zm.58,3.54a.14.14,0,0,1-.16-.16c0-.08.07-.17.2-.16s.06.08.09.12A.18.18,0,0,1,15.13,20.77Zm.49,18.46a1,1,0,0,1-.3,0c-.07,0-.05-.11,0-.12a1.5,1.5,0,0,1,.29,0S15.63,39.23,15.62,39.23Zm.23-1.49s.05.1.07.15-.07.16-.19.12a.2.2,0,0,1-.08-.14C15.66,37.77,15.74,37.72,15.85,37.74ZM16.07,40l0,0h.06Zm.28.72a.18.18,0,0,1-.18-.16s.06-.08.12-.13a1.2,1.2,0,0,1,.23.11.12.12,0,0,1,0,.14A.29.29,0,0,1,16.35,40.69Zm38.16,25.2.08-.17h.2l.34.11a.35.35,0,0,1,.07.23Zm6.67-26.62a.59.59,0,0,1-.54-.36c0-.28.45-.28.52-.54C61.18,38.67,61.37,39,61.18,39.27ZM85.73,69.46a1.79,1.79,0,0,0-1.55-.22.57.57,0,0,1-.26,0c.06.21.26.32.43.45l-.16.37a87.64,87.64,0,0,0-17.07,5c.27-1,.52-1.93.75-2.83h.07c0-.15,5.83-21,8.72-33.05a.47.47,0,0,0,0-.19h0c1.08-4.43,1.82-7.49,1.84-7.56a.43.43,0,0,1,.47-.13.37.37,0,0,1,.13.15c.24,1.25.46,10.63.72,11.9a1.74,1.74,0,0,0,.47,1c0,.3-.06.56-.06.8a.58.58,0,0,0,.13.37c.1.13.3.21.34.43.11.56.26,1.1.37,1.64a1.29,1.29,0,0,1-.24.82A1.46,1.46,0,0,0,81,49.68c.47.22.3.58.26.93,0,0,0,0,0,.08-.22.42,0,.72.43,1,0,0,.13-.05.21-.07a.28.28,0,0,1,.2,0c.06,0,0,.19-.11.19h-.67a19.49,19.49,0,0,0,.86,4.53.54.54,0,0,1,.07.26c0,1.19.39,2.31.54,3.46a7,7,0,0,0,.3,1.66h0a.63.63,0,0,0-.15.67c.11.37.26.71.39,1.08a1.29,1.29,0,0,0-.13.8,4.26,4.26,0,0,1,.13,1.51c0,.24.09.39.3.54s.18.39.26.58a.72.72,0,0,0-.28.78,1.2,1.2,0,0,0,.5.8c.26.24.58.09.9.09a1.32,1.32,0,0,0,.72-.35.39.39,0,0,1,.36.3C86.05,68.88,86.16,69.2,85.73,69.46ZM109.64,84a.13.13,0,0,1,0-.22.31.31,0,0,1,.22-.11c.1,0,.15.09.11.2S109.78,84.1,109.64,84Zm.65,0-.05-.07.08,0,.05,0Zm.57-.13.74.32c0,.2-.1.25-.21.23a2.08,2.08,0,0,1-.59-.21C110.68,84.13,110.68,84,110.86,83.85Zm.6,3.15h-.08s0,0,0-.06h.08Zm-.38-.89c0-.43.36-.7.46-1.1a1.59,1.59,0,0,1,.5.58C111.52,86,111.51,86,111.08,86.11Zm1.8-.88a.23.23,0,0,1-.16-.27s.09-.11.12-.1a.25.25,0,0,1,.23.23A.16.16,0,0,1,112.88,85.23Z"></path></svg>